<?xml version="1.0" encoding="iso-8859-1"?>
<!-- Generator: Adobe Illustrator 19.0.0, SVG Export Plug-In . SVG Version: 6.00 Build 0)  -->
<svg version="1.1" id="Capa_1" xmlns="http://www.w3.org/2000/svg" xmlns:xlink="http://www.w3.org/1999/xlink" x="0px" y="0px"
	 viewBox="0 0 511.997 511.997" style="enable-background:new 0 0 511.997 511.997;" xml:space="preserve">
<g>
	<g>
		<g>
			<path d="M197.914,443.548l-41.617-22.707c-0.742-0.393-2.697-1.468-2.697-7.433v-14.464c3.115-4.881,10.01-16.785,14.106-32.222
				c5.06-3.49,11.494-9.003,11.494-17.015v-18.662c0-6.622-4.762-11.17-8.533-14.336v-22.579
				c0.307-3.524,0.964-19.721-10.786-33.109c-10.334-11.767-26.795-17.766-48.964-17.809c-22.144,0.043-38.596,6.042-48.905,17.818
				c-11.708,13.38-11.017,29.551-10.701,33.109v22.554c-3.806,3.149-8.644,7.697-8.644,14.353v18.662
				c0,8.013,6.426,13.525,11.486,17.015c4.096,15.437,10.991,27.341,14.114,32.222v14.464c0,5.965-1.963,7.04-2.697,7.433
				l-41.626,22.707C9.173,451.603,0,467.066,0,483.893v15.3c0,4.71,3.814,8.533,8.533,8.533h204.8c4.71,0,8.533-3.823,8.533-8.533
				v-15.3C221.867,467.066,212.685,451.603,197.914,443.548z M204.8,490.66H17.067v-6.767c0-10.581,5.76-20.301,15.044-25.361
				l41.634-22.707c5.282-2.884,11.588-9.114,11.588-22.417v-17.05c0-1.775-0.572-3.516-1.596-4.966
				c-0.102-0.128-9.6-13.611-13.781-31.855c-0.503-2.167-1.818-4.053-3.695-5.265c-3.618-2.33-5.803-4.07-6.528-5.18v-16.981
				c0.768-0.905,2.483-2.295,3.465-3.089c0.879-0.717,1.698-1.382,2.372-1.997c1.792-1.621,2.807-3.917,2.807-6.323v-26.982
				c0-0.324-0.026-0.717-0.068-1.05c-0.009-0.111-1.229-11.665,6.69-20.557c6.955-7.817,19.046-11.802,35.917-11.836
				c16.905,0.034,29.013,4.019,35.994,11.844c7.953,8.9,6.758,20.463,6.75,20.514c-0.034,0.358-0.06,0.725-0.06,1.084v26.982
				c0,2.406,1.024,4.71,2.816,6.332c0.64,0.58,1.408,1.212,2.219,1.886c1.007,0.811,2.731,2.227,3.499,3.14v17.033
				c-0.725,1.109-2.918,2.85-6.537,5.18c-1.877,1.212-3.191,3.098-3.695,5.265c-4.181,18.244-13.679,31.727-13.773,31.846
				c-1.041,1.451-1.596,3.191-1.596,4.975v17.05c0,13.304,6.298,19.533,11.588,22.417l41.626,22.707
				c9.284,5.06,15.053,14.78,15.053,25.361V490.66z"/>
			<path d="M488.044,204.615l-41.617-22.699c-1.664-0.913-2.697-2.654-2.697-4.548v-17.365c2.987-4.659,9.421-15.744,13.551-30.182
				c0.265-0.93,0.802-2.185,1.843-2.953c2.526-1.869,10.206-7.526,10.206-16.102V92.103c0-6.536-4.966-11.119-6.588-12.629
				c-1.237-1.135-1.946-2.739-1.946-4.395V55.197c0.307-3.524,0.964-19.721-10.786-33.109
				C439.677,10.311,423.224,4.321,401.046,4.27c-22.144,0.051-38.588,6.05-48.896,17.826c-11.708,13.38-11.017,29.551-10.701,33.109
				v19.831c0,1.673-0.725,3.285-1.98,4.429c-1.647,1.502-6.673,6.076-6.673,12.638v18.662c0,8.576,7.68,14.234,10.206,16.102
				c1.041,0.768,1.579,2.022,1.835,2.944c4.139,14.438,10.573,25.532,13.56,30.191v17.365c0,1.894-1.033,3.635-2.688,4.54
				l-41.626,22.707c-14.78,8.055-23.953,23.518-23.953,40.346v15.3c0,4.71,3.814,8.533,8.533,8.533h204.8
				c4.719,0,8.533-3.823,8.533-8.533v-15.3C511.997,228.133,502.823,212.671,488.044,204.615z M494.93,251.728H307.197v-6.767
				c0-10.581,5.769-20.301,15.053-25.361l41.634-22.707c7.134-3.908,11.58-11.383,11.58-19.524v-19.942
				c0-1.775-0.563-3.516-1.596-4.966c-0.077-0.111-8.064-11.435-12.621-27.349c-1.425-4.975-4.232-9.122-8.124-11.989
				c-2.116-1.562-2.961-2.551-3.26-2.978V93.187c0.205-0.247,0.555-0.606,1.101-1.101c4.796-4.378,7.552-10.59,7.552-17.05v-20.25
				c0-0.324-0.026-0.725-0.068-1.05c-0.009-0.111-1.237-11.665,6.682-20.557c6.955-7.817,19.046-11.802,35.917-11.844
				c16.905,0.043,29.013,4.028,36.002,11.853c7.945,8.9,6.758,20.463,6.75,20.506c-0.043,0.358-0.068,0.725-0.068,1.092v20.292
				c0,6.4,2.705,12.57,7.424,16.939c0.563,0.503,0.905,0.879,1.109,1.126v16.998c-0.299,0.427-1.143,1.417-3.26,2.978
				c-3.891,2.867-6.699,7.014-8.132,11.998c-4.548,15.906-12.535,27.23-12.604,27.332c-1.05,1.451-1.604,3.191-1.604,4.975v19.942
				c0,8.141,4.446,15.616,11.588,19.524l41.626,22.707c9.284,5.06,15.053,14.78,15.053,25.361V251.728z"/>
			<path d="M381.531,296.929c-0.214-0.217-0.44-0.422-0.676-0.615c-0.032-0.026-0.065-0.047-0.097-0.073
				c-0.185-0.147-0.374-0.289-0.571-0.42c-0.086-0.057-0.175-0.106-0.263-0.16c-0.148-0.091-0.294-0.183-0.447-0.265
				c-0.114-0.061-0.231-0.112-0.346-0.167c-0.133-0.064-0.265-0.13-0.401-0.187c-0.134-0.056-0.271-0.101-0.407-0.149
				c-0.124-0.044-0.246-0.092-0.372-0.13c-0.162-0.049-0.325-0.086-0.489-0.126c-0.105-0.025-0.207-0.055-0.313-0.077
				c-0.228-0.046-0.459-0.078-0.69-0.105c-0.044-0.005-0.087-0.015-0.131-0.019c-0.574-0.058-1.152-0.058-1.726,0
				c-0.044,0.004-0.087,0.014-0.131,0.019c-0.231,0.027-0.461,0.059-0.69,0.105c-0.106,0.021-0.208,0.051-0.313,0.077
				c-0.164,0.039-0.328,0.077-0.489,0.126c-0.126,0.038-0.248,0.086-0.372,0.13c-0.136,0.048-0.273,0.093-0.407,0.149
				c-0.137,0.057-0.268,0.123-0.401,0.187c-0.116,0.055-0.233,0.106-0.346,0.167c-0.153,0.082-0.3,0.174-0.447,0.265
				c-0.087,0.054-0.177,0.102-0.263,0.16c-0.197,0.131-0.386,0.274-0.571,0.42c-0.032,0.025-0.066,0.047-0.097,0.073
				c-0.236,0.193-0.462,0.398-0.676,0.615l-25.565,25.565c-3.337,3.337-3.337,8.73,0,12.066c3.336,3.337,8.73,3.337,12.066,0
				l8.844-8.844c-10.668,55.013-59.192,96.678-117.277,96.678c-4.719,0-8.533,3.823-8.533,8.533s3.814,8.533,8.533,8.533
				c68.752,0,125.792-51.091,135.171-117.296l12.396,12.396c1.664,1.664,3.849,2.5,6.033,2.5c2.185,0,4.369-0.836,6.033-2.5
				c3.337-3.337,3.337-8.73,0-12.066L381.531,296.929z"/>
			<path d="M113.396,215.06c0.214,0.217,0.44,0.422,0.677,0.615c0.022,0.018,0.045,0.033,0.068,0.051
				c0.195,0.156,0.396,0.306,0.605,0.445c0.066,0.044,0.134,0.08,0.201,0.122c0.169,0.106,0.339,0.211,0.515,0.305
				c0.082,0.044,0.167,0.079,0.249,0.12c0.166,0.082,0.332,0.163,0.504,0.234c0.09,0.037,0.181,0.066,0.272,0.1
				c0.169,0.063,0.338,0.127,0.512,0.179c0.099,0.03,0.2,0.051,0.3,0.077c0.167,0.044,0.333,0.09,0.504,0.123
				c0.13,0.026,0.262,0.04,0.393,0.06c0.142,0.021,0.283,0.048,0.428,0.062c0.279,0.028,0.56,0.042,0.84,0.042
				s0.561-0.015,0.84-0.042c0.145-0.014,0.285-0.041,0.428-0.062c0.131-0.02,0.263-0.034,0.393-0.06
				c0.171-0.034,0.337-0.08,0.504-0.123c0.1-0.026,0.201-0.047,0.3-0.077c0.174-0.052,0.343-0.116,0.512-0.179
				c0.091-0.034,0.182-0.063,0.272-0.1c0.172-0.071,0.338-0.153,0.504-0.234c0.083-0.041,0.168-0.077,0.249-0.12
				c0.177-0.094,0.346-0.199,0.515-0.305c0.067-0.042,0.135-0.078,0.201-0.122c0.209-0.139,0.409-0.288,0.605-0.445
				c0.022-0.018,0.046-0.033,0.068-0.051c0.237-0.193,0.462-0.398,0.677-0.615l25.565-25.565c3.337-3.337,3.337-8.73,0-12.066
				s-8.73-3.337-12.066,0l-8.844,8.844c10.668-55.013,59.192-96.678,117.277-96.678c4.719,0,8.533-3.823,8.533-8.533
				s-3.814-8.533-8.533-8.533c-68.752,0-125.792,51.091-135.171,117.296l-12.396-12.396c-3.336-3.337-8.73-3.337-12.066,0
				s-3.337,8.73,0,12.066L113.396,215.06z"/>
		</g>
	</g>
</g>
<g>
</g>
<g>
</g>
<g>
</g>
<g>
</g>
<g>
</g>
<g>
</g>
<g>
</g>
<g>
</g>
<g>
</g>
<g>
</g>
<g>
</g>
<g>
</g>
<g>
</g>
<g>
</g>
<g>
</g>
</svg>
